<svg width="24" height="18" fill="none" xmlns="http://www.w3.org/2000/svg"><path d="M20.903 0H3.097C1.387 0 0 1.402 0 3.13v11.74C0 16.599 1.386 18 3.097 18h17.806C22.613 18 24 16.599 24 14.87V3.13C24 1.402 22.613 0 20.903 0z" fill="#0095FF"/><path fill-rule="evenodd" clip-rule="evenodd" d="M1.5 7.085l.787-1.835H3.65l.446 1.028V5.25h1.693l.266.743.257-.743h7.597v.374s.4-.374 1.056-.374l2.465.009.439 1.014V5.25h1.416l.39.583V5.25h1.43v3.297h-1.43l-.373-.585v.585H17.22l-.21-.52h-.559l-.206.52h-1.41c-.566 0-.927-.366-.927-.366v.366h-2.127l-.423-.52v.52H3.447l-.21-.52H2.68l-.207.52H1.5V7.085zm1.066-1.429l-1.062 2.47h.691l.196-.495h1.14l.194.494h.707L3.37 5.656h-.805zm.393.575l.347.864H2.61l.349-.864zm1.546-.575v2.469h.617v-1.82l.656 1.82h.541l.654-1.82v1.82h.618V5.656h-.975l-.558 1.595-.57-1.591-.983-.004zm3.508 2.469V5.656h2.014v.552h-1.39v.422h1.357v.52H8.636v.439h1.39v.536H8.014zm2.371 0V5.656h1.373c.456 0 .863.282.863.801 0 .444-.343.73-.677.759l.812.91h-.754l-.74-.878h-.26v.877h-.617zm1.323-1.916H11v.52h.715c.124 0 .283-.096.283-.26 0-.128-.123-.26-.292-.26zm1.795 1.916h-.63V5.656h.63v2.469zm1.359 0h.136l.26-.54h-.163c-.393 0-.666-.2-.666-.678 0-.403.239-.666.576-.666h.707v-.585h-.682c-.831 0-1.226.521-1.226 1.245 0 .705.4 1.224 1.058 1.224zm1.479-2.469l-1.062 2.47h.691l.196-.495h1.139l.195.494h.706l-1.06-2.469h-.805zm.392.575l.348.864h-.696l.348-.864zm1.545-.575v2.469h.617V6.533l1.028 1.592h.759V5.656h-.617v1.551l-1.002-1.551h-.785zM5.576 9.57v3.297h3.47l.38-.499.373.5h2.095v-.764h.471c.409 0 .598-.124.598-.124v.887h1.384v-.52l.422.52h7.016c.384-.003.715-.227.715-.227v-.668c-.101.278-.35.473-.753.473h-1.315v-.536h1.235c.183 0 .262-.099.262-.207 0-.104-.079-.209-.262-.209h-.558c-.485 0-.756-.296-.756-.74 0-.395.248-.777.969-.777H22.5V9.57H9.829l-.387.488-.375-.488h-3.49zm16.924.457l-.236.505h-1.04c-.198 0-.26.104-.26.204 0 .102.076.215.228.215h.585c.395 0 .627.164.723.409v-1.333zm-16.501-.05v2.468h2.014v-.536h-1.39v-.439H7.98v-.52H6.622v-.422h1.39v-.552H6zm11.882 2.468h-2.014V9.976h2.014v.552h-1.39v.423h1.351v.52h-1.351v.438h1.39v.536zm-8.81-1.22l-.98 1.22h.766l.567-.76.58.76h.778l-.983-1.235.991-1.234h-.747l-.6.773-.598-.773h-.777l1.003 1.25zm1.784-1.248v2.468h.633v-.78h.65c.55 0 .966-.29.966-.858 0-.47-.326-.83-.886-.83h-1.363zm.633.558h.684c.178 0 .305.109.305.284 0 .165-.126.284-.306.284h-.683v-.568zm2.502 1.91h-.618V9.976h1.374c.455 0 .863.282.863.801 0 .444-.344.73-.677.758l.812.91h-.755l-.74-.877h-.26v.877zm.705-1.917h-.705v.52h.714c.124 0 .283-.096.283-.26 0-.127-.123-.26-.292-.26zm3.472 1.917v-.536h1.235c.183 0 .262-.099.262-.207 0-.104-.08-.209-.262-.209h-.558c-.486 0-.756-.296-.756-.74 0-.395.248-.777.969-.777h1.202l-.26.556h-1.04c-.198 0-.26.104-.26.204 0 .102.076.215.228.215h.585c.54 0 .775.306.775.708 0 .432-.261.786-.805.786h-1.315z" fill="#fff"/></svg>