<svg width="30" height="30" xmlns="http://www.w3.org/2000/svg" xmlns:xlink="http://www.w3.org/1999/xlink"><defs><linearGradient x1="0%" y1="100%" y2="0%" id="creditcard-c"><stop stop-color="#060B0E" offset="0%"/><stop stop-color="#254764" offset="100%"/></linearGradient><linearGradient x1="27.635%" y1="25.476%" x2="22.589%" y2="11.652%" id="creditcard-d"><stop stop-color="#FFF" stop-opacity="0" offset="0%"/><stop stop-color="#FFF" offset="100%"/></linearGradient><linearGradient x1="50.002%" y1="100%" x2="38.944%" y2="55.526%" id="creditcard-e"><stop stop-color="#FFF" stop-opacity="0" offset="0%"/><stop stop-color="#FFF" offset="100%"/></linearGradient><linearGradient x1="38.944%" y1="55.526%" x2="50.001%" y2="100%" id="creditcard-f"><stop stop-color="#FFF" stop-opacity="0" offset="0%"/><stop stop-color="#FFF" offset="100%"/></linearGradient><linearGradient x1="49.992%" y1="0%" x2="49.992%" y2="100%" id="creditcard-g"><stop stop-color="#FAD961" offset="0%"/><stop stop-color="#F7955D" offset="100%"/></linearGradient><path d="M22.5 0h-15A7.5 7.5 0 000 7.5v15A7.5 7.5 0 007.5 30h15a7.5 7.5 0 007.5-7.5v-15A7.5 7.5 0 0022.5 0z" id="creditcard-a"/></defs><g fill="none" fill-rule="evenodd"><mask id="creditcard-b" fill="#fff"><use xlink:href="#creditcard-a"/></mask><g mask="url(#creditcard-b)" fill-rule="nonzero"><path d="M32.5 27h-15a7.5 7.5 0 00-7.5 7.5v15a7.5 7.5 0 007.5 7.5h15a7.5 7.5 0 007.5-7.5v-15a7.5 7.5 0 00-7.5-7.5z" fill="url(#creditcard-c)" transform="translate(-10 -27)"/><path d="M45.156 94.5c16.31 0 29.532-13.222 29.532-29.531 0-16.31-13.222-29.532-29.532-29.532-16.31 0-29.531 13.222-29.531 29.532 0 16.31 13.222 29.531 29.531 29.531z" fill="url(#creditcard-d)" opacity=".1" transform="translate(-10 -27)"/><path d="M16.094 72c8.543 0 15.468-6.926 15.468-15.469s-6.925-15.468-15.467-15.468c-8.542 0-15.47 6.925-15.47 15.467C.625 65.072 7.551 72 16.094 72z" fill="url(#creditcard-e)" opacity=".1" transform="translate(-10 -27)"/><path d="M49.844 50.438c13.72 0 24.843-11.123 24.843-24.844C74.687 11.873 63.565.75 49.844.75S25 11.873 25 25.594c0 13.72 11.123 24.843 24.844 24.843v.001z" fill="url(#creditcard-f)" opacity=".1" transform="translate(-10 -27)"/><path d="M9.375 13.125H4.687a.937.937 0 00-.937.938v2.812c0 .518.42.938.938.938h4.687c.518 0 .938-.42.938-.938v-2.813a.937.937 0 00-.938-.937z" fill="#000"/><path d="M19.375 40.125h-4.688a.937.937 0 00-.937.938v2.812c0 .518.42.938.938.938h4.687c.518 0 .938-.42.938-.938v-2.813a.937.937 0 00-.938-.937z" fill="url(#creditcard-g)" transform="translate(-10 -27)"/><path d="M5.625 14.063h-.938v2.812h.938v-2.813.001zm1.875 0h-.938v2.812H7.5v-2.813.001zm1.875 0h-.938v2.812h.938v-2.813.001z" fill="#7A3802" opacity=".3"/><path d="M8.438 20.625H3.75v.938h4.688v-.938zM6.563 22.5H3.75v.938h2.813V22.5zm3.75 0H7.5v.938h2.813V22.5zm3.75 0H11.25v.938h2.813V22.5zm0-1.875H9.375v.938h4.688v-.938zm5.625 0H15v.938h4.688v-.938zm5.625 0h-4.688v.938h4.688v-.938z" fill-opacity=".8" fill="#FFF"/></g></g></svg>